<?xml version="1.0" encoding="iso-8859-1"?>
<!-- Generator: Adobe Illustrator 16.0.0, SVG Export Plug-In . SVG Version: 6.00 Build 0)  -->
<!DOCTYPE svg PUBLIC "-//W3C//DTD SVG 1.1//EN" "http://www.w3.org/Graphics/SVG/1.1/DTD/svg11.dtd">
<svg version="1.1" id="Capa_1" xmlns="http://www.w3.org/2000/svg" xmlns:xlink="http://www.w3.org/1999/xlink" x="0px" y="0px"
	 width="64px" height="64px" viewBox="0 0 64 64" style="enable-background:new 0 0 64 64;" xml:space="preserve">
<g>
	<g>
		<g id="circle_18_">
			<g>
				<path d="M38.8,30.828l-9.389-6.193C28.907,24.302,28,24.348,28,24.348s0,1.056,0,1.659v12.019c0,0.604,0,1.533,0,1.533
					s0.907-0.016,1.411-0.351l9.389-5.786c0.457-0.303,0.731-0.812,0.731-1.359C39.531,31.516,39.257,31.131,38.8,30.828z M32,0
					C14.327,0,0,14.327,0,32s14.327,32,32,32s32-14.327,32-32S49.673,0,32,0z M41.109,33.665l-12,7.989
					c-0.613,0.41-1.402,0.447-2.053,0.1C26.406,41.405,26,40.73,26,39.993v-15.98c0-0.737,0.406-1.414,1.057-1.761
					c0.65-0.348,1.439-0.309,2.053,0.1l12,7.989C41.666,30.712,42,31.335,42,32.003C42,32.67,41.666,33.294,41.109,33.665z"/>
			</g>
		</g>
	</g>
</g>
<g>
</g>
<g>
</g>
<g>
</g>
<g>
</g>
<g>
</g>
<g>
</g>
<g>
</g>
<g>
</g>
<g>
</g>
<g>
</g>
<g>
</g>
<g>
</g>
<g>
</g>
<g>
</g>
<g>
</g>
</svg>
